<?xml version="1.0" encoding="utf-8"?>
<!-- Generator: Adobe Illustrator 21.1.0, SVG Export Plug-In . SVG Version: 6.00 Build 0)  -->
<svg version="1.0" id="Layer_1" xmlns="http://www.w3.org/2000/svg" xmlns:xlink="http://www.w3.org/1999/xlink" x="0px" y="0px"
	 width="300px" height="300px" viewBox="0 0 300 300" enable-background="new 0 0 300 300" xml:space="preserve">
<g>
	<polygon fill="#404041" points="141,259.4 89.6,264.7 79.2,264.7 93.1,254.1 110.1,257.9 110.8,260.4 	"/>
	<polygon fill="#FFB819" points="186,42.7 206,64.3 181.9,62.4 	"/>
	<polygon fill="#F7D93E" points="162.5,19.1 163.6,73.3 181.9,62.4 186,42.7 	"/>
	<polygon fill="#FFB819" points="162.9,42.7 103.6,19.1 131.2,106.5 163.6,73.3 	"/>
	<polygon fill="#F7D93E" points="131.2,106.5 97,183.4 214.2,217.4 154.8,82.3 	"/>
	<path fill="#B27C3F" d="M113.6,21"/>
	<polygon fill="#F7D93E" points="31.8,104.5 103.6,19.1 81.8,78.8 	"/>
	<polygon fill="#FCED75" points="81.8,78.8 116.8,60.7 103.6,19.1 	"/>
	<polygon fill="#FCED75" points="116.8,60.7 131.2,106.5 97,183.4 86.5,108.5 	"/>
	<polygon fill="#FFB819" points="214.2,217.4 218.9,241.7 158.9,229.1 139.7,251 157,264.7 89.6,264.7 103.6,254.1 120.6,257.9 
		152.2,221.6 	"/>
	<g>
		<polygon fill="#A6A8AB" points="31.8,104.5 50.7,164.8 116.8,60.7 		"/>
		<polygon fill="#A6A8AB" points="158.9,229.1 222.2,271.3 218.9,241.7 		"/>
	</g>
	<polyline fill="#404041" points="222.2,271.3 268.2,285 218.9,241.7 	"/>
	<polygon fill="#404041" points="134.5,222.8 126.1,251.5 120.6,257.9 114.3,256.5 123.8,223.7 101.4,225 50.7,164.8 86.5,108.5 
		97,183.4 214.2,217.4 	"/>
	<polygon fill="#404041" points="103.6,19.1 162.9,42.7 162.5,19.1 140.8,15 	"/>
</g>
</svg>
